<svg id="Composant_1_104" data-name="Composant 1 – 104" xmlns="http://www.w3.org/2000/svg" width="33" height="49" viewBox="0 0 33 49">
  <path id="Soustraction_1" data-name="Soustraction 1" d="M16.5,49h0L2.653,24.886a16.105,16.105,0,0,1-1.045-1.819l-.288-.5h.053A15.827,15.827,0,0,1,1.3,9.845,16.05,16.05,0,0,1,4.833,4.721a16.473,16.473,0,0,1,5.245-3.454,16.915,16.915,0,0,1,12.845,0,16.473,16.473,0,0,1,5.245,3.454A16.05,16.05,0,0,1,31.7,9.845a15.827,15.827,0,0,1-.076,12.721h.052l-.284.495a16.131,16.131,0,0,1-1.052,1.831L16.5,49Zm0-43.609a.358.358,0,0,0-.293.148l-6.947,9.68a.354.354,0,0,0,.293.559h2.034L6.546,22.963a.338.338,0,0,0-.024.363.353.353,0,0,0,.317.19h9.578v4.208h1.746l-.011-1.655V22.951A1.141,1.141,0,0,0,17,21.821H9.488l5.43-7.737H12.333L16.5,8.267l4.166,5.817H18.107l5.43,7.737H21.072a1.141,1.141,0,0,0-1.149,1.13v.565h6.235a.356.356,0,0,0,.318-.187.348.348,0,0,0-.019-.366L21.44,15.779h2.005a.353.353,0,0,0,.317-.19.349.349,0,0,0-.024-.37l-6.947-9.68A.357.357,0,0,0,16.5,5.391Z" transform="translate(0)" fill="#3b4245"/>
</svg>
